<svg xmlns="http://www.w3.org/2000/svg" viewBox="0 0 512 512"><rect width="512" height="512" rx="128" fill="#eef4f8"/><circle cx="256" cy="210" r="92" fill="#f6b28d"/><path d="M142 206c10-88 49-130 119-130s109 43 112 130c-41-34-88-48-141-42-31 3-61 17-90 42Z" fill="#1f2f55"/><path d="M155 432c18-88 72-132 101-132s83 44 101 132H155Z" fill="#1d9e75"/><path d="M173 214c28-44 139-43 166 0l-11-76H184l-11 76Z" fill="#1f2f55"/><circle cx="218" cy="230" r="13" fill="#18223b"/><circle cx="294" cy="230" r="13" fill="#18223b"/><path d="M214 282c29 25 63 25 84 0" stroke="#8a3140" stroke-width="14" stroke-linecap="round" fill="none"/></svg>
