<svg xmlns="http://www.w3.org/2000/svg" viewBox="0 0 512 512"><rect width="512" height="512" rx="128" fill="#fff2f6"/><circle cx="256" cy="210" r="92" fill="#ffbe95"/><path d="M158 206c-10-86 29-137 103-137 73 0 112 52 93 137-48-52-137-55-196 0Z" fill="#b33419"/><path d="M154 432c20-86 70-132 102-132s82 46 102 132H154Z" fill="#e83e8c"/><circle cx="218" cy="230" r="13" fill="#372018"/><circle cx="294" cy="230" r="13" fill="#372018"/><path d="M215 284c28 22 57 22 82 0" stroke="#e55555" stroke-width="13" stroke-linecap="round" fill="none"/><path d="M332 271c17 61 31 105 73 151-53 0-94-31-106-82" fill="#b33419" opacity=".9"/></svg>
